<?xml version="1.0" standalone="no"?>
<!DOCTYPE svg PUBLIC "-//W3C//DTD SVG 20010904//EN"
 "http://www.w3.org/TR/2001/REC-SVG-20010904/DTD/svg10.dtd">
<svg version="1.0" xmlns="http://www.w3.org/2000/svg"
 width="70.000000pt" height="70.000000pt" viewBox="0 0 70.000000 70.000000"
 preserveAspectRatio="xMidYMid meet">
<metadata>
Created by potrace 1.11, written by Peter Selinger 2001-2013
</metadata>
<g transform="translate(0.000000,70.000000) scale(0.100000,-0.100000)"
fill="#000000" stroke="none">
<path d="M235 684 c-96 -35 -173 -109 -212 -206 -22 -53 -25 -73 -21 -143 7
-138 75 -243 196 -302 50 -25 68 -28 152 -28 83 0 102 3 150 27 72 36 133 96
167 166 25 50 28 68 28 152 0 83 -3 102 -27 150 -36 72 -96 133 -166 167 -47
23 -71 28 -142 30 -53 1 -100 -4 -125 -13z m261 -34 c164 -81 234 -272 159
-437 -91 -203 -353 -262 -523 -118 -96 81 -138 213 -107 338 52 205 281 311
471 217z"/>
<path d="M343 545 c0 -8 4 -15 9 -15 4 0 8 7 8 15 0 8 -4 15 -8 15 -5 0 -9 -7
-9 -15z"/>
<path d="M344 465 c-1 -30 2 -55 5 -55 4 0 7 25 8 55 0 30 -2 55 -6 55 -3 0
-7 -25 -7 -55z"/>
<path d="M345 371 c1 -20 18 -45 53 -81 29 -29 55 -51 58 -48 3 3 -18 29 -46
57 -32 34 -50 61 -50 77 0 13 -4 24 -8 24 -5 0 -8 -13 -7 -29z"/>
</g>
</svg>
