<?xml version="1.0" standalone="no"?>
<!DOCTYPE svg PUBLIC "-//W3C//DTD SVG 20010904//EN"
 "http://www.w3.org/TR/2001/REC-SVG-20010904/DTD/svg10.dtd">
<svg version="1.0" xmlns="http://www.w3.org/2000/svg"
 width="200.000000pt" height="200.000000pt" viewBox="0 0 200.000000 200.000000"
 preserveAspectRatio="xMidYMid meet">
<metadata>
Created by potrace 1.11, written by Peter Selinger 2001-2013
</metadata>
<g transform="translate(0.000000,200.000000) scale(0.100000,-0.100000)"
fill="#000000" stroke="none">
<path d="M8 1993 c7 -3 16 -2 19 1 4 3 -2 6 -13 5 -11 0 -14 -3 -6 -6z"/>
<path d="M740 1914 c-112 -24 -204 -77 -300 -173 -141 -141 -221 -283 -270
-481 -33 -132 -33 -316 0 -445 44 -173 122 -312 251 -450 l78 -82 -24 -13
c-14 -7 -25 -17 -25 -22 0 -4 -6 -8 -14 -8 -9 0 -12 -8 -8 -25 7 -39 80 -70
217 -94 139 -24 435 -45 535 -37 102 8 293 51 335 76 17 10 37 15 45 12 8 -2
12 -1 8 3 -4 4 37 39 90 79 161 120 231 216 267 367 19 84 19 259 -1 357 -45
219 -155 419 -327 599 -255 265 -587 396 -857 337z m370 -68 c47 -15 96 -34
110 -42 14 -7 50 -26 80 -41 30 -16 57 -31 60 -34 3 -4 23 -19 45 -33 46 -31
152 -122 175 -150 8 -10 23 -27 33 -38 9 -10 17 -22 17 -27 0 -5 6 -11 13 -14
21 -8 120 -163 162 -253 20 -43 49 -119 63 -169 24 -80 27 -107 26 -240 0
-143 -2 -154 -32 -234 -17 -47 -35 -87 -40 -90 -4 -3 -19 -22 -32 -41 -14 -19
-34 -44 -45 -56 -21 -21 -96 -78 -105 -80 -3 0 -16 -5 -30 -11 -102 -45 -138
-53 -230 -54 -142 -1 -327 48 -430 114 -19 12 -46 28 -60 35 -14 7 -43 28 -65
47 -22 19 -43 35 -47 35 -10 0 -169 165 -183 189 -5 10 -26 38 -46 62 -20 24
-43 58 -51 74 -9 17 -27 52 -42 78 -14 26 -26 54 -26 62 0 8 -9 29 -19 47 -10
18 -24 58 -31 88 -7 30 -16 66 -21 80 -11 30 -15 254 -6 290 4 14 9 39 12 55
6 32 85 198 97 203 4 2 29 25 55 50 133 131 367 169 593 98z"/>
<path d="M775 1781 c-87 -23 -114 -34 -129 -54 -31 -42 -24 -54 168 -287 26
-31 -65 52 -112 103 -25 26 -40 36 -53 32 -21 -7 -26 10 -6 19 19 8 -44 56
-74 56 -14 0 -33 -8 -41 -17 -23 -26 -90 -192 -95 -236 -7 -49 19 -91 49 -81
11 3 18 2 15 -3 -9 -14 5 -27 48 -49 38 -18 39 -20 23 -37 -14 -13 -18 -13
-18 -3 0 17 -49 27 -86 17 -44 -11 -42 -49 10 -213 50 -159 77 -198 132 -198
27 0 149 46 224 85 18 9 34 14 37 12 2 -3 -39 -30 -92 -62 -59 -35 -93 -60
-89 -67 5 -8 1 -9 -11 -5 -42 17 -60 -45 -27 -94 16 -25 84 -90 209 -201 63
-55 106 -66 122 -31 6 13 15 23 20 23 6 0 17 21 25 48 11 34 15 40 15 22 1
-15 6 -31 13 -38 9 -9 9 -12 -1 -12 -23 0 -8 -96 19 -125 31 -33 73 -44 198
-52 118 -7 157 4 148 43 -3 12 -2 24 4 26 5 2 0 23 -10 48 l-20 45 22 -30 c87
-118 129 -122 253 -25 55 44 77 92 65 145 -5 21 -12 41 -17 44 -4 3 -19 18
-32 33 l-24 27 34 -9 c101 -29 121 -7 130 148 3 64 2 131 -3 148 -9 34 -39 66
-66 70 -29 5 -92 29 -92 36 0 3 13 9 29 13 33 7 71 39 71 61 0 22 -21 59 -104
186 -103 158 -114 167 -185 147 -15 -5 -66 -52 -81 -77 -9 -14 -10 -12 -4 8 4
14 10 27 13 30 10 7 31 84 31 112 0 46 -38 76 -185 149 -111 55 -150 70 -170
65 -14 -4 -23 -11 -20 -16 3 -5 1 -11 -5 -15 -6 -4 -9 -9 -7 -13 2 -4 1 -29
-2 -57 l-6 -50 -23 63 c-28 75 -57 111 -97 117 -16 2 -79 -9 -140 -24z m125
-96 c0 -8 -4 -15 -10 -15 -5 0 -10 7 -10 15 0 8 5 15 10 15 6 0 10 -7 10 -15z
m315 -55 c3 -5 1 -10 -4 -10 -6 0 -11 5 -11 10 0 6 2 10 4 10 3 0 8 -4 11 -10z
m95 -65 c0 -8 -4 -15 -10 -15 -5 0 -10 7 -10 15 0 8 5 15 10 15 6 0 10 -7 10
-15z m-290 -35 c0 -5 -4 -10 -10 -10 -5 0 -10 5 -10 10 0 6 5 10 10 10 6 0 10
-4 10 -10z m130 -30 c0 -5 -4 -10 -10 -10 -5 0 -10 5 -10 10 0 6 5 10 10 10 6
0 10 -4 10 -10z m-56 -189 c27 -186 41 -216 79 -170 12 15 40 53 62 84 47 68
83 110 90 104 2 -3 -29 -50 -70 -104 -74 -100 -89 -137 -59 -149 8 -3 76 -3
150 0 94 4 134 3 134 -5 0 -7 -42 -11 -127 -11 -212 0 -210 -8 52 -185 96 -65
133 -94 120 -95 -11 0 -73 40 -121 78 -64 51 -200 142 -211 142 -28 0 -7 -55
98 -263 53 -104 83 -177 71 -177 -8 0 -9 3 -108 220 -124 272 -126 272 -164
25 -14 -93 -32 -156 -38 -132 -2 10 8 79 23 152 14 74 25 146 23 162 -4 36
-29 41 -68 13 -17 -12 -36 -20 -43 -17 -6 2 7 14 31 26 63 32 54 73 -19 83
-13 2 -33 9 -44 15 -11 6 -55 20 -98 32 -43 12 -95 30 -115 41 l-37 21 35 -7
c19 -4 89 -26 155 -50 66 -24 131 -44 144 -44 20 0 22 3 16 28 -5 22 -4 25 6
15 28 -27 41 -15 35 30 -3 23 -7 51 -7 62 -1 11 -7 50 -15 87 -8 37 -13 93
-13 125 2 73 4 64 33 -136z m294 154 c-3 -3 -9 2 -12 12 -6 14 -5 15 5 6 7 -7
10 -15 7 -18z m-508 5 c0 -5 -4 -10 -10 -10 -5 0 -10 5 -10 10 0 6 5 10 10 10
6 0 10 -4 10 -10z m610 -4 c0 -3 -4 -8 -10 -11 -5 -3 -10 -1 -10 4 0 6 5 11
10 11 6 0 10 -2 10 -4z m-455 -26 c3 -5 -1 -10 -9 -10 -9 0 -16 5 -16 10 0 6
4 10 9 10 6 0 13 -4 16 -10z m-465 -4 c0 -11 -19 -15 -25 -6 -3 5 1 10 9 10 9
0 16 -2 16 -4z m580 -26 c0 -5 -2 -10 -4 -10 -3 0 -8 5 -11 10 -3 6 -1 10 4
10 6 0 11 -4 11 -10z m150 -60 c0 -5 -4 -10 -10 -10 -5 0 -10 5 -10 10 0 6 5
10 10 10 6 0 10 -4 10 -10z m280 -36 c0 -8 -4 -12 -10 -9 -5 3 -10 10 -10 16
0 5 5 9 10 9 6 0 10 -7 10 -16z m-995 -4 c3 -5 2 -10 -4 -10 -5 0 -13 5 -16
10 -3 6 -2 10 4 10 5 0 13 -4 16 -10z m125 -20 c0 -5 -7 -10 -16 -10 -8 0 -12
5 -9 10 3 6 10 10 16 10 5 0 9 -4 9 -10z m90 -14 c0 -3 -4 -8 -10 -11 -5 -3
-10 -1 -10 4 0 6 5 11 10 11 6 0 10 -2 10 -4z m232 -101 c8 -14 2 -12 -21 9
-17 17 -31 34 -31 39 0 14 39 -23 52 -48z m607 46 c7 -5 10 -14 6 -20 -5 -9
-10 -9 -21 0 -26 22 -14 38 15 20z m-692 -33 c-3 -8 -6 -5 -6 6 -1 11 2 17 5
13 3 -3 4 -12 1 -19z m-169 -57 c3 -8 -1 -12 -9 -9 -7 2 -15 10 -17 17 -3 8 1
12 9 9 7 -2 15 -10 17 -17z m-217 -24 c-12 -12 -31 0 -31 19 0 12 3 12 20 2
11 -7 16 -16 11 -21z m914 4 c3 -5 1 -12 -4 -15 -5 -3 -11 1 -15 9 -6 16 9 21
19 6z m172 -37 c-3 -3 -12 -4 -19 -1 -8 3 -5 6 6 6 11 1 17 -2 13 -5z m-702
-34 c3 -5 -1 -10 -10 -10 -9 0 -13 5 -10 10 3 6 8 10 10 10 2 0 7 -4 10 -10z
m545 -40 c0 -5 -4 -10 -10 -10 -5 0 -10 5 -10 10 0 6 5 10 10 10 6 0 10 -4 10
-10z m90 0 c0 -5 -4 -10 -10 -10 -5 0 -10 5 -10 10 0 6 5 10 10 10 6 0 10 -4
10 -10z m-810 -20 c0 -5 -4 -10 -10 -10 -5 0 -10 5 -10 10 0 6 5 10 10 10 6 0
10 -4 10 -10z m160 -24 c0 -2 -7 -7 -16 -10 -8 -3 -12 -2 -9 4 6 10 25 14 25
6z m-289 -29 c-1 -12 -15 -9 -19 4 -3 6 1 10 8 8 6 -3 11 -8 11 -12z m379 -1
c0 -3 -4 -8 -10 -11 -5 -3 -10 -1 -10 4 0 6 5 11 10 11 6 0 10 -2 10 -4z m725
-36 c3 -5 -1 -10 -9 -10 -9 0 -16 5 -16 10 0 6 4 10 9 10 6 0 13 -4 16 -10z
m-283 -22 c-7 -7 -12 -8 -12 -2 0 14 12 26 19 19 2 -3 -1 -11 -7 -17z m-297
-8 c3 -5 1 -10 -4 -10 -6 0 -11 5 -11 10 0 6 2 10 4 10 3 0 8 -4 11 -10z
m-180 -70 c3 -5 1 -10 -4 -10 -6 0 -11 5 -11 10 0 6 2 10 4 10 3 0 8 -4 11
-10z m738 -33 c-3 -5 -11 0 -18 10 -10 13 -10 20 -2 25 13 8 28 -21 20 -35z
m-618 -57 c3 -5 1 -10 -4 -10 -6 0 -11 5 -11 10 0 6 2 10 4 10 3 0 8 -4 11
-10z m-320 -20 c8 -13 -5 -13 -25 0 -13 8 -13 10 2 10 9 0 20 -4 23 -10z m60
-60 c3 -5 1 -10 -4 -10 -6 0 -11 5 -11 10 0 6 2 10 4 10 3 0 8 -4 11 -10z
m565 1 c0 -6 -4 -13 -10 -16 -5 -3 -10 1 -10 9 0 9 5 16 10 16 6 0 10 -4 10
-9z m205 -81 c3 -5 -1 -10 -10 -10 -9 0 -13 5 -10 10 3 6 8 10 10 10 2 0 7 -4
10 -10z m-65 -71 c0 -5 -7 -9 -15 -9 -15 0 -20 12 -9 23 8 8 24 -1 24 -14z
m-382 -30 c-7 -4 -16 -3 -20 4 -11 18 2 29 18 16 12 -10 12 -14 2 -20z m109
-15 c-3 -3 -12 -4 -19 -1 -8 3 -5 6 6 6 11 1 17 -2 13 -5z"/>
</g>
</svg>
